<svg xmlns="http://www.w3.org/2000/svg" viewBox="0 0 426.94 417.17"><g id="Layer_2" data-name="Layer 2"><g id="Layer_1-2" data-name="Layer 1"><path d="M213.91,357.41A149.29,149.29,0,0,1,202.34,59.29c82-6.51,154.11,55,160.63,137S308,350.42,226,356.93Q219.92,357.41,213.91,357.41Zm.34-295.59q-5.79,0-11.67.47a146.28,146.28,0,0,0,23.14,291.65c80.41-6.38,140.63-77,134.26-157.4C353.91,120.05,289.71,61.82,214.25,61.82Z"/><path d="M30.8,178.25l-2.71-2.34c3.33-2.06,6.49-6.41,7.72-11.42,1.77-7.12-.46-11-4.21-11.88C21.16,150,21.78,175,7.7,171.56c-5.6-1.38-9.36-6.93-7-16.61A22.15,22.15,0,0,1,7,144l2.87,2.15a20.14,20.14,0,0,0-5.73,9.66c-1.72,7,.61,10.83,4.42,11.77,10.43,2.58,9.92-22.41,23.78-19,5.6,1.39,9.28,7,6.88,16.76C37.83,171.05,34.43,176.15,30.8,178.25Z"/><path d="M32,137.2C24,133.44,21.18,125,25,117.09c2.13-4.5,5.7-7.46,10.2-7.93l.55,3.54a10,10,0,0,0-7.62,5.88c-2.75,5.82-.62,12,5.61,15s12.39.66,15.14-5.16a10,10,0,0,0-.23-9.58L51.69,117c2.44,3.75,2.46,8.41.33,12.91C48.26,137.86,39.91,141,32,137.2Z"/><path d="M46.9,81.1l3.17,2.21c-.19.28-.43.52-.59.75C46,89.11,47,94.43,52.72,98.4L65,107l-2.28,3.26L38.6,93.4l2.18-3.12,4.73,3.3C43.35,89.82,43.8,85.56,46.9,81.1Z"/><path d="M64.9,82c-6.2-6.15-6.12-15.06-.05-21.19S79.79,54.56,86,60.71s6.21,15.06.14,21.19A14.54,14.54,0,0,1,64.9,82ZM83.16,63.58c-4.9-4.85-11.43-4.79-15.85-.33s-4.46,11,.43,15.88,11.47,4.74,15.88.28S88.05,68.43,83.16,63.58Z"/><path d="M100.84,57.85l-19.59-27,3.22-2.33,19.39,26.74c2,2.81,4.47,3.4,7.15,1.46a7,7,0,0,0,1.88-2l2.17,2.51a11.4,11.4,0,0,1-2.54,2.6C108.16,63,103.93,62.11,100.84,57.85Z"/><path d="M119,45.79,102.7,16.67l3.47-1.94,16.16,28.82c1.7,3,4,3.89,6.93,2.28a6.88,6.88,0,0,0,2.1-1.76l1.86,2.75a11.34,11.34,0,0,1-2.83,2.29C125.7,51.74,121.6,50.38,119,45.79Z"/><path d="M172.19,31.24a9.26,9.26,0,0,1-5.35,3.69c-5.33,1.53-9.16-.64-10.65-5.86L148.57,2.53l3.82-1.1,1.78,6.19,8.56-2.45.93,3.23-8.56,2.46L160,27.76c1,3.34,3.15,4.69,6.32,3.78a6.51,6.51,0,0,0,3.79-2.66Z"/><path d="M177.16,16.63c-1-8.69,4.7-15.57,13.27-16.52S206,4.63,206.94,13.31s-4.63,15.62-13.2,16.57A14.53,14.53,0,0,1,177.16,16.63Zm25.77-2.87c-.76-6.85-5.89-10.9-12.12-10.2s-10.4,5.78-9.64,12.62,6,10.89,12.18,10.2S203.69,20.61,202.93,13.76Z"/><path d="M260.43,27l1.69,3a14.39,14.39,0,0,1-12,2.51c-9-1.79-14-9.18-12.27-17.75S246.71,1.22,255,2.88c7.74,1.54,12.43,8.36,11.09,16.54l-24.64-.12c.49,4.95,4,8.62,9.37,9.69A11.46,11.46,0,0,0,260.43,27Zm-18.78-11.8a9.85,9.85,0,0,0-.19,1.22l21.17.11a10,10,0,0,0-8.29-10.27C248.19,5,243,8.64,241.65,15.17Z"/><path d="M290.07,45.2l-4-14.94L272.7,38.13l-4.15-1.69L285,26.83,280.17,9.37l4.15,1.69,3.85,14,12.54-7.35,4.05,1.64-15.68,9.1,5.19,18.44Z"/><path d="M335.58,55.75c-5,7.44-13.56,9-20.54,4.3A12.82,12.82,0,0,1,309,49l-9.13,13.63-3.31-2.21L319,26.9,322.14,29l-3.24,4.84a12.85,12.85,0,0,1,12.81,1.3C338.69,39.84,340.54,48.35,335.58,55.75Zm-3.3-2.21c3.8-5.68,2.43-12.19-2.73-15.65S317.84,35.65,314,41.32,311.56,53.48,316.77,57,328.44,59.26,332.28,53.54Z"/><path d="M341.08,70l23-24.2L367,48.49l-22.75,24c-2.39,2.51-2.53,5-.13,7.29a7,7,0,0,0,2.3,1.48l-2.08,2.59a11,11,0,0,1-3-2C337.37,78.09,337.46,73.77,341.08,70Z"/><path d="M359.57,78.62c6.95-5.3,15.76-4,21,2.86s4.13,15.66-2.82,21-15.77,4.07-21-2.79S352.62,83.91,359.57,78.62ZM375.3,99.23c5.47-4.18,6.3-10.66,2.5-15.64s-10.31-6-15.78-1.77-6.28,10.7-2.48,15.69S369.82,103.41,375.3,99.23Z"/><path d="M404.47,120.88,401,122.64c-.15-.3-.26-.62-.39-.87-2.81-5.48-8-7-14.19-3.86l-13.35,6.86-1.81-3.54,26.2-13.45,1.74,3.39-5.13,2.63C398.43,113.65,402,116,404.47,120.88Z"/><path d="M395.29,162.11,393.51,165a14.36,14.36,0,0,1-8-9.35c-2.75-8.77,1.35-16.68,9.68-19.3s16.1,1.35,18.63,9.42c2.36,7.54-1.37,14.93-9.19,17.68l-11.73-21.68c-4.11,2.81-5.65,7.64-4,12.88A11.44,11.44,0,0,0,395.29,162.11ZM396.63,140a7.82,7.82,0,0,0-1.16.42L405.53,159a10,10,0,0,0,5-12.2C408.69,140.83,403,138,396.63,140Z"/><path d="M411.51,195.06l.46,15.71-3.72.11-.45-15.72Z"/><path d="M396.31,240.41l2.69,2.37c-3.36,2-6.55,6.35-7.84,11.34-1.82,7.11.36,11,4.1,11.93,10.42,2.68,10-22.34,24.08-18.73,5.59,1.44,9.3,7,6.81,16.68a22.08,22.08,0,0,1-6.39,10.9l-2.85-2.18a20.25,20.25,0,0,0,5.83-9.6c1.78-6.95-.51-10.83-4.31-11.81-10.41-2.68-10.14,22.31-24,18.76-5.58-1.44-9.21-7.12-6.71-16.83C389.21,247.55,392.66,242.48,396.31,240.41Z"/><path d="M394.76,281.46c7.91,3.83,10.67,12.27,6.83,20.18-2.17,4.48-5.77,7.4-10.27,7.83l-.52-3.55a10,10,0,0,0,7.67-5.8c2.81-5.79.73-12-5.47-15s-12.38-.77-15.19,5a10,10,0,0,0,.14,9.59l-3.11,1.79c-2.4-3.78-2.38-8.44-.2-12.92C378.47,280.65,386.85,277.62,394.76,281.46Z"/><path d="M379.31,337.41l-3.14-2.24c.19-.27.43-.52.59-.74,3.57-5,2.55-10.35-3.1-14.38l-12.23-8.7,2.3-3.24,24,17.08-2.2,3.1-4.7-3.34C383,328.73,382.46,333,379.31,337.41Z"/><path d="M361.33,336.35c6.15,6.21,6,15.12-.14,21.18s-15,6.11-21.14-.09-6.07-15.12.05-21.19A14.55,14.55,0,0,1,361.33,336.35ZM342.91,354.6c4.85,4.89,11.38,4.88,15.84.47s4.56-11-.29-15.88-11.42-4.84-15.87-.43S338.06,349.71,342.91,354.6Z"/><path d="M325.17,360.16l19.35,27.2-3.25,2.31-19.15-26.93c-2-2.83-4.44-3.44-7.13-1.53a7,7,0,0,0-1.9,2L311,360.65a11,11,0,0,1,2.56-2.58C317.89,355,322.12,355.87,325.17,360.16Z"/><path d="M306.85,372.07l16,29.26-3.48,1.91-15.89-29c-1.67-3-4-3.93-6.91-2.34a6.9,6.9,0,0,0-2.11,1.73l-1.84-2.76a11.1,11.1,0,0,1,2.85-2.26C300.23,366.06,304.32,367.46,306.85,372.07Z"/><path d="M253.58,386.12a9.22,9.22,0,0,1,5.38-3.65c5.34-1.48,9.15.72,10.6,6l7.37,26.6-3.83,1.06-1.72-6.2-8.58,2.38-.9-3.24,8.58-2.38-4.69-16.94c-.93-3.35-3.11-4.72-6.29-3.84a6.49,6.49,0,0,0-3.81,2.62Z"/><path d="M248.46,400.68c.88,8.69-4.84,15.53-13.42,16.4s-15.5-4.66-16.39-13.35,4.77-15.58,13.35-16.45A14.53,14.53,0,0,1,248.46,400.68Zm-25.8,2.64c.7,6.85,5.79,10.95,12,10.31s10.45-5.68,9.76-12.54-5.85-10.94-12.09-10.3S222,396.47,222.66,403.32Z"/><path d="M165.29,389.58l-1.67-3a14.33,14.33,0,0,1,12.06-2.4c9,1.87,13.9,9.31,12.11,17.86s-9,13.39-17.31,11.66c-7.73-1.62-12.36-8.48-10.94-16.65l24.65.35c-.45-5-3.91-8.66-9.29-9.78A11.4,11.4,0,0,0,165.29,389.58Zm18.66,12a7.19,7.19,0,0,0,.2-1.22L163,400a10,10,0,0,0,8.19,10.36C177.32,411.66,182.59,408.07,184,401.55Z"/><path d="M135.81,371.07l3.88,15,13.43-7.74,4.13,1.73-16.57,9.46,4.7,17.5-4.13-1.72-3.72-14.06-12.61,7.23-4-1.68,15.76-8.95-5-18.49Z"/><path d="M90.41,360.11c5.06-7.4,13.65-8.86,20.58-4.12a12.86,12.86,0,0,1,6,11.12l9.25-13.54,3.28,2.24L106.75,389.1,103.61,387l3.28-4.8a12.83,12.83,0,0,1-12.79-1.42C87.16,376,85.39,367.46,90.41,360.11Zm3.29,2.24C89.84,368,91.15,374.51,96.29,378s11.68,2.35,15.53-3.29,2.59-12.13-2.59-15.67S97.58,356.66,93.7,362.35Z"/><path d="M85,345.86l-23.2,24L59,367.08l23-23.75c2.41-2.49,2.57-5,.2-7.29a6.86,6.86,0,0,0-2.29-1.5L82,332a11.05,11.05,0,0,1,3,2C88.83,337.75,88.7,342.07,85,345.86Z"/><path d="M66.63,337c-7,5.23-15.79,3.84-21-3.06s-4-15.7,3-20.93,15.81-3.92,21,3A14.55,14.55,0,0,1,66.63,337ZM51.1,316.26c-5.52,4.12-6.41,10.59-2.65,15.62s10.25,6,15.76,1.91,6.38-10.65,2.62-15.67S56.61,312.13,51.1,316.26Z"/><path d="M22.11,294.33l3.46-1.73c.15.3.25.62.37.87,2.77,5.51,8,7.1,14.16,4l13.41-6.74,1.79,3.56L29,307.49l-1.71-3.4,5.16-2.59C28.09,301.61,24.55,299.19,22.11,294.33Z"/><path d="M31.68,253.18l1.82-2.9a14.4,14.4,0,0,1,7.89,9.43c2.66,8.79-1.5,16.67-9.86,19.2s-16.08-1.5-18.53-9.59c-2.29-7.56,1.5-14.91,9.35-17.59l11.52,21.79c4.13-2.78,5.72-7.59,4.13-12.84A11.46,11.46,0,0,0,31.68,253.18Zm-1.54,22.11a8.27,8.27,0,0,0,1.16-.41l-9.89-18.71a10,10,0,0,0-5.15,12.16C18.08,274.33,23.76,277.23,30.14,275.29Z"/><path d="M15.76,220.11l-.31-15.71,3.72-.08L19.48,220Z"/></g></g></svg>